<svg width="379" height="379" viewBox="0 0 379 379" fill="none" xmlns="http://www.w3.org/2000/svg">
<rect width="379" height="379" rx="19" fill="#8C7AD7"/>
<path d="M199.208 92.4166L102.125 208.917H189.5L179.792 286.583L276.875 170.083H189.5L199.208 92.4166Z" fill="#DED7FF"/>
<path opacity="0.3" d="M202.287 115.622L132.671 192.342H184.054L179.2 250.592L242.304 182.633H193.762L202.287 115.622Z" fill="#998ED0"/>
<path d="M199.208 98.5258C203.498 98.5258 206.975 95.0485 206.975 90.7591C206.975 86.4697 203.498 82.9924 199.208 82.9924C194.919 82.9924 191.442 86.4697 191.442 90.7591C191.442 95.0485 194.919 98.5258 199.208 98.5258Z" fill="white"/>
<path d="M180.218 293.119C184.507 293.119 187.985 289.641 187.985 285.352C187.985 281.063 184.507 277.585 180.218 277.585C175.928 277.585 172.451 281.063 172.451 285.352C172.451 289.641 175.928 293.119 180.218 293.119Z" fill="white"/>
<path opacity="0.8" d="M103.309 214.742C106.526 214.742 109.134 212.134 109.134 208.917C109.134 205.7 106.526 203.092 103.309 203.092C100.092 203.092 97.4839 205.7 97.4839 208.917C97.4839 212.134 100.092 214.742 103.309 214.742Z" fill="white"/>
<path opacity="0.8" d="M275.691 175.908C278.908 175.908 281.516 173.3 281.516 170.083C281.516 166.866 278.908 164.258 275.691 164.258C272.474 164.258 269.866 166.866 269.866 170.083C269.866 173.3 272.474 175.908 275.691 175.908Z" fill="white"/>
<rect x="180.976" y="175.293" width="17.0488" height="28.4146" fill="#D9D9D9"/>
</svg>
